<svg width="28" height="29" viewBox="0 0 28 29" fill="none" xmlns="http://www.w3.org/2000/svg">
<mask id="mask0_202_297" style="mask-type:alpha" maskUnits="userSpaceOnUse" x="0" y="0" width="28" height="29">
<rect y="0.768066" width="28" height="28" fill="#C4C4C4"/>
</mask>
<g mask="url(#mask0_202_297)">
<path d="M26.0287 9.57049L14.2418 3.20632C13.9817 3.06632 13.6702 3.06632 13.41 3.20632L1.62551 9.57049C1.20085 9.80032 1.04218 10.3312 1.27202 10.757C1.42952 11.0487 1.73168 11.2155 2.04202 11.2155C2.18202 11.2155 2.32552 11.1805 2.45735 11.1105L3.40818 10.5971L5.30868 24.029C5.55835 25.4465 6.83468 26.4346 8.40968 26.4346H19.2387C20.816 26.4346 22.0912 25.4453 22.3455 23.9998L24.2425 10.5948L25.1968 11.1105C25.6215 11.3356 26.1535 11.1805 26.3833 10.7558C26.612 10.3323 26.4533 9.80149 26.0287 9.57049ZM20.6177 23.7257C20.4928 24.4326 19.7975 24.6846 19.241 24.6846H8.41202C7.85202 24.6846 7.15785 24.4327 7.03768 23.7537L5.05201 9.71048L13.8253 4.97149L22.601 9.70815L20.6177 23.7257Z" fill="black"/>
<path d="M9.41532 14.9534C9.41532 17.3848 11.3928 19.3634 13.8253 19.3634C16.2578 19.3634 18.2353 17.3848 18.2353 14.9534C18.2353 12.5221 16.2578 10.5434 13.8253 10.5434C11.3928 10.5434 9.41532 12.5221 9.41532 14.9534ZM16.4853 14.9534C16.4853 16.4211 15.293 17.6134 13.8253 17.6134C12.3577 17.6134 11.1653 16.4211 11.1653 14.9534C11.1653 13.4858 12.3577 12.2934 13.8253 12.2934C15.293 12.2934 16.4853 13.4858 16.4853 14.9534Z" fill="black"/>
</g>
</svg>
