<svg width="34" height="36" viewBox="0 0 34 36" fill="none" xmlns="http://www.w3.org/2000/svg">
<g filter="url(#filter0_d_202_330)">
<mask id="mask0_202_330" style="mask-type:alpha" maskUnits="userSpaceOnUse" x="3" y="0" width="28" height="29">
<rect x="3" y="0.768066" width="28" height="28" fill="#C4C4C4"/>
</mask>
<g mask="url(#mask0_202_330)">
<path d="M21.9584 12.4348C20.8325 12.4348 19.9167 13.353 19.9167 14.4765C19.9167 15.6 20.8314 16.5181 21.9584 16.5181C23.083 16.5181 24 15.6011 24 14.4765C24 13.3518 23.083 12.4348 21.9584 12.4348ZM21.9584 15.3515C21.4754 15.3515 21.0834 14.9595 21.0834 14.4765C21.0834 13.9946 21.4765 13.6015 21.9584 13.6015C22.4402 13.6015 22.8334 13.9935 22.8334 14.4765C22.8334 14.9583 22.4414 15.3515 21.9584 15.3515ZM16.7084 12.4348C15.5814 12.4348 14.6667 13.353 14.6667 14.4765C14.6667 15.6 15.5825 16.5181 16.7084 16.5181C17.8342 16.5181 18.75 15.6011 18.75 14.4765C18.75 13.3518 17.8354 12.4348 16.7084 12.4348ZM16.7084 15.3515C16.2254 15.3515 15.8334 14.9595 15.8334 14.4765C15.8334 13.9946 16.2265 13.6015 16.7084 13.6015C17.1902 13.6015 17.5834 13.9935 17.5834 14.4765C17.5834 14.9583 17.1914 15.3515 16.7084 15.3515ZM11.4584 12.4348C10.3325 12.4348 9.41669 13.353 9.41669 14.4765C9.41669 15.6 10.3325 16.5181 11.4584 16.5181C12.583 16.5181 13.5 15.6011 13.5 14.4765C13.5 13.3518 12.5819 12.4348 11.4584 12.4348ZM11.4584 15.3515C10.9754 15.3515 10.5834 14.9595 10.5834 14.4765C10.5834 13.9946 10.9765 13.6015 11.4584 13.6015C11.9402 13.6015 12.3334 13.9935 12.3334 14.4765C12.3334 14.9583 11.9414 15.3515 11.4584 15.3515Z" fill="black"/>
<path d="M16.7084 27.0182C9.79235 27.0182 4.16669 21.3925 4.16669 14.4765C4.16669 7.56048 9.79235 1.93481 16.7084 1.93481C23.6244 1.93481 29.25 7.56048 29.25 14.4765C29.25 21.3925 23.6244 27.0182 16.7084 27.0182ZM16.7084 3.68481C10.7584 3.68481 5.91669 8.52648 5.91669 14.4765C5.91669 20.4265 10.7584 25.2682 16.7084 25.2682C22.6584 25.2682 27.5 20.4265 27.5 14.4765C27.5 8.52648 22.6584 3.68481 16.7084 3.68481Z" fill="black"/>
</g>
</g>
<defs>
<filter id="filter0_d_202_330" x="-1" y="0.768066" width="36" height="36" filterUnits="userSpaceOnUse" color-interpolation-filters="sRGB">
<feFlood flood-opacity="0" result="BackgroundImageFix"/>
<feColorMatrix in="SourceAlpha" type="matrix" values="0 0 0 0 0 0 0 0 0 0 0 0 0 0 0 0 0 0 127 0" result="hardAlpha"/>
<feOffset dy="4"/>
<feGaussianBlur stdDeviation="2"/>
<feComposite in2="hardAlpha" operator="out"/>
<feColorMatrix type="matrix" values="0 0 0 0 0 0 0 0 0 0 0 0 0 0 0 0 0 0 0.25 0"/>
<feBlend mode="normal" in2="BackgroundImageFix" result="effect1_dropShadow_202_330"/>
<feBlend mode="normal" in="SourceGraphic" in2="effect1_dropShadow_202_330" result="shape"/>
</filter>
</defs>
</svg>
