<svg width="28" height="29" viewBox="0 0 28 29" fill="none" xmlns="http://www.w3.org/2000/svg">
<mask id="mask0_202_300" style="mask-type:alpha" maskUnits="userSpaceOnUse" x="0" y="0" width="28" height="29">
<rect y="0.768066" width="28" height="28" fill="#C4C4C4"/>
</mask>
<g mask="url(#mask0_202_300)">
<path d="M25.314 20.0623C25.2907 20.0437 22.8174 18.149 22.8605 13.0273C22.8839 10.0733 21.9132 7.44832 20.1224 5.63649C18.5182 4.01132 16.3459 3.11299 14.0067 3.10132H13.9915C11.6535 3.11299 9.48121 4.01133 7.87587 5.63766C6.08621 7.4495 5.11321 10.0733 5.13888 13.0273C5.18205 18.079 2.78221 19.9888 2.68654 20.0623C2.38321 20.2875 2.25954 20.6807 2.37738 21.04C2.49638 21.3993 2.83236 21.6408 3.20803 21.6408H8.94805C9.06705 24.3358 11.2779 26.4942 13.9997 26.4942C16.7215 26.4942 18.93 24.3358 19.0479 21.6408H24.7902C25.1659 21.6408 25.5019 21.4005 25.6185 21.0412C25.7387 20.683 25.615 20.2887 25.3117 20.0635L25.314 20.0623ZM14.0009 24.7407C12.245 24.7407 10.8159 23.3675 10.7015 21.6397H17.3002C17.1835 23.3663 15.7567 24.743 14.0009 24.743V24.7407ZM5.11088 19.8897C5.97421 18.569 6.91688 16.357 6.88888 13.011C6.86788 10.491 7.64021 8.36532 9.12071 6.86616C10.3959 5.57466 12.1307 4.85948 14.0009 4.85132C15.871 4.86065 17.6024 5.57467 18.8775 6.86733C20.3592 8.3665 21.1327 10.491 21.1117 13.0122C21.0837 16.3582 22.0275 18.5713 22.8909 19.8908H5.11088V19.8897Z" fill="black"/>
</g>
</svg>
